<?xml version="1.0" encoding="UTF-8"?>
<svg width="120px" height="23px" viewBox="0 0 120 23" version="1.1" xmlns="http://www.w3.org/2000/svg" xmlns:xlink="http://www.w3.org/1999/xlink">
    <title>logo-easyascii-light</title>
    <g id="logo-easyascii-light" stroke="none" stroke-width="1" fill="none" fill-rule="evenodd">
        <path d="M33.1800515,19.1503683 C33.5493225,19.1503683 33.9305606,19.1230149 34.3237658,19.0683081 C34.716971,19.0136013 35.1033379,18.9195739 35.4828664,18.7862261 C35.8623949,18.6528782 36.2265372,18.4750811 36.5752931,18.2528346 C36.924049,18.0305882 37.2386132,17.7553446 37.5189856,17.4271037 L37.5189856,17.4271037 L36.7804437,16.5039262 C36.7257368,16.4287043 36.6607725,16.3705783 36.5855506,16.3295482 C36.5103288,16.2885181 36.4214302,16.2680031 36.3188549,16.2680031 C36.1615728,16.2680031 35.999162,16.3158715 35.8316223,16.4116084 C35.6640827,16.5073454 35.4691897,16.6133398 35.2469433,16.7295918 C35.0246968,16.8458438 34.7648395,16.9518382 34.4673712,17.0475752 C34.1699029,17.1433121 33.8160182,17.1911805 33.4057171,17.1911805 C32.5714381,17.1911805 31.9012797,16.9381615 31.3952416,16.4321235 C30.8892036,15.9260855 30.5985737,15.1328367 30.5233518,14.0523771 L30.5233518,14.0523771 L37.0266243,14.0523771 C37.1428763,14.0523771 37.2386132,14.0369908 37.3138351,14.0062182 C37.389057,13.9754456 37.4488925,13.924158 37.4933418,13.8523553 C37.5377911,13.7805526 37.5685637,13.6813965 37.5856596,13.554887 C37.6027555,13.4283775 37.6113034,13.2693858 37.6113034,13.077912 C37.6113034,12.3188549 37.4984706,11.6435677 37.272805,11.0520502 C37.0471394,10.4605328 36.7325752,9.96133314 36.3291124,9.55445121 C35.9256497,9.14756928 35.4452555,8.83813387 34.8879298,8.62614496 C34.3306041,8.41415606 33.7202812,8.30816161 33.0569611,8.30816161 C32.2705507,8.30816161 31.5644909,8.44492864 30.9387817,8.71846271 C30.3130725,8.99199678 29.7831002,9.36297736 29.3488649,9.83140446 C28.9146295,10.2998316 28.5812599,10.8503189 28.3487559,11.4828664 C28.116252,12.1154139 28,12.7907012 28,13.5087281 C28,14.4319056 28.1333479,15.2439599 28.4000436,15.9448909 C28.6667393,16.645822 29.0325911,17.2339202 29.497599,17.7091857 C29.962607,18.1844511 30.5096751,18.5434646 31.1388035,18.7862261 C31.7679318,19.0289876 32.4483478,19.1503683 33.1800515,19.1503683 Z M35.3341323,12.5240055 L30.5746394,12.5240055 C30.6908914,11.7581101 30.9575871,11.1665926 31.3747266,10.7494532 C31.791866,10.3323137 32.3697068,10.123744 33.1082488,10.123744 C33.4843581,10.123744 33.812599,10.1869988 34.0929714,10.3135083 C34.3733438,10.4400178 34.6058478,10.6126861 34.7904833,10.8315134 C34.9751188,11.0503407 35.1118858,11.3050693 35.2007844,11.5956992 C35.289683,11.8863292 35.3341323,12.1957646 35.3341323,12.5240055 L35.3341323,12.5240055 Z M42.2066758,19.1606258 C42.5827851,19.1606258 42.9247027,19.1298533 43.2324285,19.0683081 C43.5401544,19.0067629 43.8307843,18.9144452 44.1043184,18.7913548 C44.3778525,18.6682645 44.6428386,18.5161112 44.8992768,18.3348949 C45.155715,18.1536785 45.4172819,17.9433992 45.6839776,17.7040569 L45.6839776,17.7040569 L45.9096432,18.4528564 C45.9780268,18.6716837 46.080602,18.8169987 46.2173691,18.8888014 C46.3541361,18.9606041 46.5421908,18.9965054 46.7815331,18.9965054 L46.7815331,18.9965054 L47.9201187,18.9965054 L47.9201187,12.3496275 C47.9201187,11.7546909 47.8329297,11.2076228 47.6585517,10.7084231 C47.4841737,10.2092234 47.2294451,9.78011682 46.8943659,9.42110335 C46.5592867,9.06208989 46.1506951,8.78171747 45.6685913,8.57998609 C45.1864876,8.37825471 44.6377098,8.27738902 44.0222582,8.27738902 C42.3126702,8.27738902 40.8526821,8.83129552 39.6422939,9.9391085 L39.6422939,9.9391085 L40.1038826,10.7494532 C40.1791045,10.8793819 40.2782606,10.9887955 40.4013509,11.0776941 C40.5244412,11.1665926 40.6714658,11.2110419 40.8424246,11.2110419 C41.0475752,11.2110419 41.2356298,11.1631735 41.4065886,11.0674365 C41.5775474,10.9716996 41.7638925,10.8639956 41.9656239,10.7443244 C42.1673553,10.6246533 42.404988,10.5169492 42.678522,10.4212123 C42.9520561,10.3254754 43.2939737,10.2776069 43.7042748,10.2776069 C44.271858,10.2776069 44.7043838,10.4468561 45.0018521,10.7853545 C45.2993204,11.1238529 45.4480545,11.6452773 45.4480545,12.3496275 L45.4480545,12.3496275 L45.4480545,12.9650792 C44.2513429,12.9924326 43.2495244,13.1086845 42.4425989,13.3138351 C41.6356734,13.5189856 40.9894492,13.7771334 40.5039262,14.0882784 C40.0184032,14.3994234 39.6713569,14.7481794 39.4627871,15.1345462 C39.2542174,15.5209131 39.1499325,15.9124088 39.1499325,16.3090332 C39.1499325,16.7808794 39.2251544,17.1945997 39.3755981,17.550194 C39.5260419,17.9057883 39.7363212,18.2032566 40.0064361,18.4425989 C40.276551,18.6819412 40.5996631,18.861448 40.9757725,18.9811191 C41.3518818,19.1007903 41.7621829,19.1606258 42.2066758,19.1606258 Z M42.9965054,17.4168461 C42.5725276,17.4168461 42.2289004,17.3211092 41.9656239,17.1296354 C41.7023473,16.9381615 41.5707091,16.6201782 41.5707091,16.1756853 C41.5707091,15.9500197 41.6339638,15.74145 41.7604733,15.5499761 C41.8869828,15.3585023 42.1006813,15.1909626 42.4015688,15.0473573 C42.7024563,14.9037519 43.1007903,14.7857903 43.5965708,14.6934726 C44.0923513,14.6011548 44.7095125,14.5379001 45.4480545,14.5037083 L45.4480545,14.5037083 L45.4480545,16.2782606 C45.263419,16.4697344 45.0804931,16.6355645 44.8992768,16.7757507 C44.7180605,16.9159369 44.5300058,17.0338984 44.3351128,17.1296354 C44.1402197,17.2253723 43.9333596,17.297175 43.7145323,17.3450435 C43.4957051,17.3929119 43.2563628,17.4168461 42.9965054,17.4168461 Z M53.1412002,19.1606258 C53.8181971,19.1606258 54.4182624,19.0734369 54.9413963,18.8990589 C55.4645302,18.7246809 55.9038943,18.4819194 56.2594886,18.1707744 C56.6150829,17.8596294 56.8851978,17.4903584 57.0698333,17.0629614 C57.2544688,16.6355645 57.3467866,16.1688469 57.3467866,15.6628089 C57.3467866,15.2388311 57.2732743,14.8763985 57.1262497,14.575511 C56.9792252,14.2746235 56.7843321,14.0164757 56.5415706,13.8010677 C56.2988092,13.5856596 56.0235655,13.4078624 55.7158397,13.2676762 C55.4081138,13.12749 55.0935497,13.0026901 54.7721471,12.8932765 C54.4507446,12.7838628 54.1361804,12.6829971 53.8284546,12.5906794 C53.5207288,12.4983616 53.2454851,12.3940768 53.0027236,12.2778248 C52.7599621,12.1615728 52.5650691,12.0265154 52.4180445,11.8726525 C52.27102,11.7187895 52.1975077,11.5290253 52.1975077,11.3033597 C52.1975077,10.9614421 52.3411131,10.6844888 52.6283238,10.4724999 C52.9155346,10.260511 53.3087398,10.1545166 53.8079395,10.1545166 C54.1293421,10.1545166 54.4080049,10.1887083 54.643928,10.2570919 C54.8798512,10.3254754 55.0901305,10.4024068 55.274766,10.4878862 C55.4594015,10.5733656 55.6218123,10.6502971 55.7619985,10.7186806 C55.9021848,10.7870641 56.033823,10.8212559 56.1569134,10.8212559 C56.2731653,10.8212559 56.3689023,10.7990312 56.4441241,10.7545819 C56.519346,10.7101327 56.5911487,10.6332012 56.6595322,10.5237876 L56.6595322,10.5237876 L57.2339538,9.61086762 C56.8373294,9.22108157 56.3415489,8.90651739 55.7466123,8.66717507 C55.1516756,8.42783276 54.4917747,8.30816161 53.7669094,8.30816161 C53.117266,8.30816161 52.544554,8.39535059 52.0487735,8.56972856 C51.552993,8.74410653 51.1392728,8.97661049 50.8076127,9.26724044 C50.4759526,9.55787039 50.2246432,9.89807839 50.0536844,10.2878644 C49.8827256,10.6776505 49.7972462,11.0879516 49.7972462,11.5187678 C49.7972462,11.9837757 49.8707585,12.3804001 50.0177831,12.708641 C50.1648076,13.0368818 50.3597007,13.3138351 50.6024621,13.5395007 C50.8452236,13.7651663 51.1221769,13.9515114 51.4333219,14.098536 C51.7444669,14.2455605 52.0624502,14.3737796 52.387272,14.4831932 C52.7120937,14.5926069 53.030077,14.6934726 53.341222,14.7857903 C53.652367,14.8781081 53.9293203,14.9823929 54.1720818,15.0986449 C54.4148432,15.2148969 54.6097363,15.3516639 54.7567608,15.508946 C54.9037854,15.6662281 54.9772977,15.8679595 54.9772977,16.1141401 C54.9772977,16.2782606 54.9448155,16.4372523 54.8798512,16.5911152 C54.8148868,16.7449781 54.7123115,16.8800355 54.5721253,16.9962875 C54.4319391,17.1125395 54.254142,17.2065668 54.0387339,17.2783695 C53.8233258,17.3501722 53.565178,17.3860736 53.2642906,17.3860736 C52.8813429,17.3860736 52.5650691,17.3416243 52.3154693,17.2527257 C52.0658694,17.1638271 51.8487517,17.0680902 51.6641163,16.9655149 C51.4794808,16.8629397 51.3170699,16.7672027 51.1768837,16.6783042 C51.0366975,16.5894056 50.8879633,16.5449563 50.7306812,16.5449563 C50.5733991,16.5449563 50.4434705,16.5757289 50.3408952,16.637274 C50.2383199,16.6988192 50.1494213,16.7877178 50.0741995,16.9039698 L50.0741995,16.9039698 L49.4895204,17.8681774 C49.6946709,18.0528129 49.9323037,18.2237717 50.2024186,18.3810537 C50.4725335,18.5383358 50.7665826,18.6751029 51.0845659,18.7913548 C51.4025493,18.9076068 51.7342094,18.998215 52.0795461,19.0631793 C52.4248829,19.1281437 52.7787676,19.1606258 53.1412002,19.1606258 Z M62.2703998,22.4327772 C62.5165805,22.4327772 62.6995064,22.3866183 62.8191776,22.2943005 C62.9388487,22.2019828 63.0362952,22.0669253 63.1115171,21.8891282 L63.1115171,21.8891282 L68.845475,8.47228205 L66.8144846,8.47228205 C66.6572025,8.47228205 66.5153067,8.51673133 66.3887972,8.60562991 C66.2622877,8.69452848 66.1716795,8.80736128 66.1169727,8.94412832 L66.1169727,8.94412832 L64.003922,14.3908755 C63.9287001,14.5823493 63.858607,14.770404 63.7936427,14.9550395 C63.7286783,15.139675 63.6688428,15.3311489 63.6141359,15.5294611 C63.5731058,15.3379872 63.5252374,15.1465134 63.4705306,14.9550395 C63.4158237,14.7635657 63.3508594,14.5789302 63.2756375,14.401133 L63.2756375,14.401133 L61.029239,8.94412832 C60.9745322,8.82103799 60.8924719,8.71162436 60.7830583,8.61588744 C60.6736447,8.52015051 60.5163626,8.47228205 60.311212,8.47228205 L60.311212,8.47228205 L58.0955861,8.47228205 L62.35246,18.2169333 L60.3830147,22.4327772 L62.2703998,22.4327772 Z M71.1739338,18.9965054 C71.4064378,18.9965054 71.6030404,18.9315411 71.7637417,18.8016124 C71.9244429,18.6716837 72.032147,18.5280783 72.0868538,18.3707962 L72.0868538,18.3707962 L73.1946668,15.3448256 L79.3389258,15.3448256 L80.4467388,18.3707962 C80.5151223,18.5485934 80.6262455,18.6973275 80.7801084,18.8169987 C80.9339714,18.9366698 81.130574,18.9965054 81.3699163,18.9965054 L81.3699163,18.9965054 L83.503482,18.9965054 L77.6772063,4.16412044 L74.8563862,4.16412044 L69.0301105,18.9965054 L71.1739338,18.9965054 Z M78.6311564,13.3958953 L73.9024362,13.3958953 L75.707761,8.48253958 C75.7966596,8.25687397 75.8872678,7.99359743 75.9795855,7.69270995 C76.0719033,7.39182247 76.1659306,7.06700076 76.2616675,6.71824482 C76.3574044,7.06700076 76.454851,7.39011288 76.5540071,7.68758118 C76.6531632,7.98504949 76.7437713,8.24319726 76.8258315,8.46202452 L76.8258315,8.46202452 L78.6311564,13.3958953 Z M88.7758512,19.1606258 C89.5964534,19.1606258 90.3247379,19.0358259 90.9607046,18.7862261 C91.5966713,18.5366262 92.1351915,18.1947087 92.5762652,17.7604733 C93.0173389,17.326238 93.3524181,16.8167808 93.5815029,16.2321017 C93.8105877,15.6474226 93.9251301,15.0200039 93.9251301,14.3498454 C93.9251301,13.7343937 93.8276836,13.2112598 93.6327906,12.7804437 C93.4378975,12.3496275 93.1797498,11.9854853 92.8583472,11.688017 C92.5369447,11.3905487 92.1710929,11.144368 91.7607918,10.949475 C91.3504907,10.7545819 90.9316416,10.5836232 90.5042446,10.4365986 C90.0768477,10.289574 89.6579986,10.1510974 89.2476975,10.0211687 C88.8373964,9.89124004 88.4715446,9.74421548 88.150142,9.58009503 C87.8287395,9.41597459 87.5705917,9.21766239 87.3756987,8.98515843 C87.1808057,8.75265447 87.0833592,8.46202452 87.0833592,8.11326858 C87.0833592,7.83973451 87.1312276,7.58842508 87.2269646,7.3593403 C87.3227015,7.13025552 87.4680165,6.9336529 87.6629095,6.76953246 C87.8578025,6.60541202 88.0971448,6.47719292 88.3809364,6.38487517 C88.664728,6.29255743 88.9980977,6.24639855 89.3810454,6.24639855 C89.8050232,6.24639855 90.1725846,6.29939578 90.4837296,6.40539023 C90.7948746,6.51138468 91.0666991,6.62934625 91.299203,6.75927493 C91.531707,6.88920362 91.7334384,7.00716518 91.9043972,7.11315964 C92.075356,7.21915409 92.2292189,7.27215132 92.3659859,7.27215132 C92.5027529,7.27215132 92.6207145,7.24137873 92.7198706,7.17983357 C92.8190267,7.1182884 92.9062157,7.01229395 92.9814376,6.86185021 L92.9814376,6.86185021 L93.6584344,5.5591442 C93.1387197,5.06678287 92.5095913,4.68383518 91.7710493,4.41030111 C91.0325073,4.13676704 90.2255818,4 89.3502728,4 C88.577539,4 87.8902847,4.11967116 87.2885097,4.35901347 C86.6867348,4.59835578 86.1789872,4.91633914 85.7652669,5.31296354 C85.3515466,5.70958794 85.0369824,6.16433833 84.8215743,6.67721471 C84.6061662,7.19009109 84.4984622,7.71664418 84.4984622,8.25687397 C84.4984622,8.93387079 84.5959087,9.50316358 84.7908017,9.96475232 C84.9856948,10.4263411 85.2438426,10.8109983 85.5652451,11.1187242 C85.8866476,11.42645 86.2524994,11.6760498 86.6628005,11.8675237 C87.0731016,12.0589975 87.4902411,12.223118 87.9142189,12.359885 C88.3381967,12.4966521 88.7553362,12.6231616 89.1656373,12.7394135 C89.5759384,12.8556655 89.9417902,12.9975613 90.2631927,13.1651009 C90.5845953,13.3326406 90.8427431,13.5395007 91.0376361,13.7856814 C91.2325291,14.031862 91.3299756,14.3498454 91.3299756,14.7396314 C91.3299756,15.4371433 91.1145675,15.9722443 90.6837514,16.3449345 C90.2529352,16.7176247 89.6443219,16.9039698 88.8579115,16.9039698 C88.3450351,16.9039698 87.905671,16.8338767 87.5398192,16.6936904 C87.1739673,16.5535042 86.855984,16.3979317 86.5858691,16.2269729 C86.3157542,16.0560141 86.0815406,15.9004416 85.8832284,15.7602554 C85.6849162,15.6200692 85.5002807,15.5499761 85.3293219,15.5499761 C85.1993933,15.5499761 85.0814317,15.5824583 84.9754372,15.6474226 C84.8694428,15.712387 84.7788346,15.7927376 84.7036128,15.8884745 L84.7036128,15.8884745 L83.9035256,17.2116956 C84.1907364,17.5057447 84.5172677,17.7724404 84.8831195,18.0117827 C85.2489713,18.2511251 85.6421765,18.4562756 86.0627352,18.6272344 C86.4832938,18.7981932 86.9226579,18.9298315 87.3808275,19.0221492 C87.838997,19.114467 88.304005,19.1606258 88.7758512,19.1606258 Z M102.326045,19.1606258 C103.556949,19.1606258 104.611764,18.9623136 105.490493,18.5656892 C106.369221,18.1690648 107.109472,17.5980625 107.711247,16.8526821 L107.711247,16.8526821 L106.623949,15.6730664 C106.514536,15.5568145 106.384607,15.4986885 106.234163,15.4986885 C106.145265,15.4986885 106.063204,15.5174939 105.987983,15.5551049 C105.912761,15.5927158 105.840958,15.6422939 105.772575,15.703839 C105.546909,15.9089896 105.319534,16.081658 105.090449,16.2218442 C104.861364,16.3620304 104.618603,16.4765728 104.362164,16.5654714 C104.105726,16.6543699 103.825354,16.7193343 103.521047,16.7603644 C103.216741,16.8013945 102.876533,16.8219095 102.500423,16.8219095 C101.871295,16.8219095 101.283197,16.703948 100.736128,16.4680248 C100.18906,16.2321017 99.7137949,15.8918937 99.3103321,15.4474008 C98.9068694,15.002908 98.5871764,14.4558398 98.3512533,13.8061964 C98.1153301,13.156553 97.9973686,12.4145918 97.9973686,11.5803129 C97.9973686,10.7733874 98.1153301,10.0468125 98.3512533,9.4005883 C98.5871764,8.75436406 98.9154173,8.20558633 99.3359759,7.75425511 C99.7565346,7.3029239 100.259153,6.95587755 100.843832,6.71311606 C101.428512,6.47035457 102.069607,6.34897383 102.767119,6.34897383 C103.362056,6.34897383 103.852707,6.41051899 104.239074,6.53360933 C104.625441,6.65669966 104.945134,6.79004752 105.198153,6.9336529 C105.451172,7.07725829 105.659742,7.21060615 105.823862,7.33369648 C105.987983,7.45678681 106.148684,7.51833198 106.305966,7.51833198 C106.45641,7.51833198 106.574371,7.4875594 106.659851,7.42601423 C106.74533,7.36446906 106.815423,7.29266637 106.87013,7.21060615 L106.87013,7.21060615 L107.793307,5.9284152 C107.205209,5.3471553 106.499149,4.88043779 105.675128,4.52826267 C104.851107,4.17608756 103.888609,4 102.787634,4 C101.659306,4 100.628424,4.18634509 99.6949894,4.55903526 C98.7615544,4.93172543 97.9597576,5.45314975 97.2895992,6.12330822 C96.6194407,6.79346669 96.099726,7.59184426 95.730455,8.51844092 C95.361184,9.44503759 95.1765485,10.4656616 95.1765485,11.5803129 C95.1765485,12.6812876 95.3423785,13.6967828 95.6740386,14.6267986 C96.0056986,15.5568145 96.4826737,16.3569016 97.1049637,17.0270601 C97.7272537,17.6972186 98.4777628,18.2203525 99.356491,18.5964618 C100.235219,18.9725712 101.225071,19.1606258 102.326045,19.1606258 Z M112.901556,18.9965054 L112.901556,4.16412044 L110.132024,4.16412044 L110.132024,18.9965054 L112.901556,18.9965054 Z M119.343284,18.9965054 L119.343284,4.16412044 L116.573751,4.16412044 L116.573751,18.9965054 L119.343284,18.9965054 Z" id="easyASCII" fill="#E7E7E7" fill-rule="nonzero"></path>
        <path d="M11.5,22 C14.40301,22 16.8787625,20.9740369 18.9272575,18.9221106 C20.9757525,16.8701843 22,14.4020101 22,11.5175879 C22,8.60971524 20.9757525,6.12981575 18.9272575,4.07788945 C16.8787625,2.02596315 14.40301,1 11.5,1 C8.59698997,1 6.12123746,2.02596315 4.07274247,4.07788945 C2.02424749,6.12981575 1,8.60971524 1,11.5175879 C1,14.4020101 2.02424749,16.8701843 4.07274247,18.9221106 C6.12123746,20.9740369 8.59698997,22 11.5,22 Z M11.5,20.4874372 C9.01839465,20.4874372 6.90551839,19.6080402 5.16137124,17.8492462 C3.41722408,16.0904523 2.5451505,13.9798995 2.5451505,11.5175879 C2.5451505,9.0318258 3.41722408,6.90954774 5.16137124,5.15075377 C6.90551839,3.3919598 9.01839465,2.51256281 11.5,2.51256281 C13.9816054,2.51256281 16.0944816,3.3919598 17.8386288,5.15075377 C19.5827759,6.90954774 20.4548495,9.0318258 20.4548495,11.5175879 C20.4548495,13.9798995 19.5827759,16.0904523 17.8386288,17.8492462 C16.0944816,19.6080402 13.9816054,20.4874372 11.5,20.4874372 Z M7.49665552,10.6733668 C7.84782609,10.6733668 8.15802676,10.538526 8.42725753,10.2688442 C8.69648829,9.99916248 8.83110368,9.68844221 8.83110368,9.33668342 C8.83110368,8.96147404 8.69648829,8.64489112 8.42725753,8.38693467 C8.15802676,8.12897822 7.84782609,8 7.49665552,8 C7.12207358,8 6.80602007,8.12897822 6.54849498,8.38693467 C6.2909699,8.64489112 6.16220736,8.96147404 6.16220736,9.33668342 C6.16220736,9.68844221 6.2909699,9.99916248 6.54849498,10.2688442 C6.80602007,10.538526 7.12207358,10.6733668 7.49665552,10.6733668 Z M15.5384615,10.6733668 C15.8896321,10.6733668 16.1939799,10.538526 16.451505,10.2688442 C16.7090301,9.99916248 16.8377926,9.68844221 16.8377926,9.33668342 C16.8377926,8.96147404 16.7090301,8.64489112 16.451505,8.38693467 C16.1939799,8.12897822 15.8896321,8 15.5384615,8 C15.1638796,8 14.8419732,8.12897822 14.5727425,8.38693467 C14.3035117,8.64489112 14.1688963,8.96147404 14.1688963,9.33668342 C14.1688963,9.68844221 14.3035117,9.99916248 14.5727425,10.2688442 C14.8419732,10.538526 15.1638796,10.6733668 15.5384615,10.6733668 Z M11.5,18.0954774 C13.6070234,18.0954774 15.2107023,17.0284757 16.3110368,14.8944724 L16.3110368,14.8944724 L15.2926421,14.2964824 C14.4264214,15.8676717 13.1622074,16.6532663 11.5,16.6532663 C9.83779264,16.6532663 8.56187291,15.8676717 7.6722408,14.2964824 L7.6722408,14.2964824 L6.65384615,14.8944724 C7.21571906,15.9262982 7.89464883,16.7177554 8.69063545,17.2688442 C9.48662207,17.819933 10.4230769,18.0954774 11.5,18.0954774 Z" id="☺" stroke="#E7E7E7" stroke-width="0.5" fill="#E7E7E7" fill-rule="nonzero"></path>
    </g>
</svg>